<?xml version="1.0" encoding="utf-8"?>
<svg width="auto" height="auto" viewBox="0 0 104.00098 50.250977" version="1.1" xmlns:xlink="http://www.w3.org/1999/xlink" xmlns="http://www.w3.org/2000/svg">
  <g id="Group-23">
    <path d="M94.2945 40.544L94.2945 2.36035L90.5967 2.36035L90.5967 40.544L94.2945 40.544L94.2945 40.544Z" id="Vector" fill="#FFFFFF" fill-rule="evenodd" stroke="none" />
    <path d="M26.3479 40.5435L26.3479 36.8457L36.9795 36.8457L36.9795 40.5435L26.3479 40.5435ZM67.0241 40.5435L77.6553 40.5435L77.6553 36.8457L67.0241 36.8457L67.0241 40.5435Z" id="Vector-Difference" fill="#FFFFFF" fill-rule="evenodd" stroke="none" />
    <path d="M11.3245 27.6016C5.07003 27.6016 0 32.6716 0 38.9261C0 45.1805 5.07003 50.2506 11.3245 50.2506C17.579 50.2506 22.649 45.1805 22.649 38.9261C22.649 32.6716 17.579 27.6016 11.3245 27.6016ZM11.3253 30.8369C6.85784 30.8369 3.23633 34.4584 3.23633 38.9258C3.23633 43.3933 6.85784 47.0148 11.3253 47.0148C15.7927 47.0148 19.4142 43.3933 19.4142 38.9258C19.4142 34.4584 15.7927 30.8369 11.3253 30.8369Z" id="Ellipse-21-Difference" fill="#FFFFFF" fill-rule="evenodd" stroke="none" />
    <path d="M52.0003 27.6016C45.7458 27.6016 40.6758 32.6716 40.6758 38.9261C40.6758 45.1805 45.7458 50.2506 52.0003 50.2506C58.2548 50.2506 63.3248 45.1805 63.3248 38.9261C63.3248 32.6716 58.2548 27.6016 52.0003 27.6016ZM52.001 30.8369C47.5336 30.8369 43.9121 34.4584 43.9121 38.9258C43.9121 43.3933 47.5336 47.0148 52.001 47.0148C56.4685 47.0148 60.09 43.3933 60.09 38.9258C60.09 34.4584 56.4685 30.8369 52.001 30.8369Z" id="Ellipse-22-Difference" fill="#FFFFFF" fill-rule="evenodd" stroke="none" />
    <path d="M81.3516 38.9261C81.3516 32.6716 86.4216 27.6016 92.6761 27.6016C98.9305 27.6016 104.001 32.6716 104.001 38.9261C104.001 45.1805 98.9305 50.2506 92.6761 50.2506C86.4216 50.2506 81.3516 45.1805 81.3516 38.9261Z" id="Ellipse-23" fill="#FFFFFF" fill-rule="evenodd" stroke="none" />
    <path d="M77.6543 10.1026L94.2944 0L94.2944 20.2056L77.6543 10.1026Z" id="Triangle-9" fill="#FFFFFF" fill-rule="evenodd" stroke="none" />
  </g>
</svg>