<?xml version="1.0" encoding="utf-8"?>
<svg width="auto" height="auto" viewBox="0 0 52.87207 53.410156" version="1.1" xmlns:xlink="http://www.w3.org/1999/xlink" xmlns="http://www.w3.org/2000/svg">
  <path d="M19.0293 13.5186L24.6152 7.46973L24.6152 24.9775L7.46387 24.9775L13.5215 19.3828L11.0127 16.667L2.72168 24.3232L2.68945 24.2939L2.31836 24.6953L1.53906 25.416L0.180664 26.6699L0 26.8447L0.180664 27.0107L2.31836 28.9844L2.68945 29.3867L2.72168 29.3564L11.0127 37.0137L13.5215 34.2969L7.43457 28.6758L24.6152 28.6758L24.6152 45.9316L19.0479 39.9033L16.3311 42.4121L23.9883 50.7041L23.959 50.7354L24.3584 51.1035L25.0801 51.8857L26.335 53.2441L26.5039 53.4102L26.6758 53.2441L28.6523 51.1035L29.0508 50.7354L29.0215 50.7041L36.6787 42.4121L33.9619 39.9033L28.3125 46.0205L28.3125 28.6758L45.4082 28.6758L39.3516 34.2695L41.8604 36.9854L50.1514 29.3291L50.1836 29.3584L50.5547 28.957L51.334 28.2373L52.6924 26.9824L52.8721 26.8066L52.6924 26.6426L50.5547 24.668L50.1836 24.2656L50.1514 24.2959L41.8604 16.6387L39.3516 19.3555L45.4395 24.9775L28.3125 24.9775L28.3125 7.42188L33.9434 13.5186L36.6602 11.0098L29.0029 2.71875L29.0322 2.6875L28.6328 2.31836L27.9111 1.53613L26.6563 0.178711L26.4883 0L26.3154 0.178711L24.3389 2.31836L23.9404 2.6875L23.9697 2.71875L16.3125 11.0098L19.0293 13.5186L19.0293 13.5186Z" id="Vector-shape" fill="#FFFFFF" fill-rule="evenodd" stroke="none" />
</svg>